<?xml version="1.0" encoding="utf-8"?>
<!-- Generator: Adobe Illustrator 21.1.0, SVG Export Plug-In . SVG Version: 6.00 Build 0)  -->
<svg version="1.1" id="圖層_1" xmlns="http://www.w3.org/2000/svg" xmlns:xlink="http://www.w3.org/1999/xlink" x="0px" y="0px"
	 width="186px" height="49.5px" viewBox="0 0 186 49.5" style="enable-background:new 0 0 186 49.5;" xml:space="preserve">
<style type="text/css">
	.st0{fill:#333;}
</style>
<g xmlns="http://www.w3.org/2000/svg">
  <title>background</title>
  <rect fill="none" id="canvas_background" height="51.5" width="188" y="-1" x="-1"/>
 </g>
<g xmlns="http://www.w3.org/2000/svg">
  <title>Layer 1</title>
  <g stroke="null" id="svg-content">
   <g stroke="null" transform="matrix(0.37583208020559955,0,0,0.3439697568022368,183.33182804962647,282.08740268965573) " class="svg-element" id="svg-logo">
    <g stroke="null" id="XMLID_1_">
     <rect stroke="null" height="98.8" width="27.5" fill="#00A0E9" y="-782.504731" x="-363.812177" id="XMLID_6_"/>
     <rect stroke="null" height="27.4" width="86.2" fill="#00A0E9" y="-809.504731" x="-393.212177" id="XMLID_5_"/>
    </g>
   </g>
   <g stroke="null" transform="matrix(0.6316710260203581,0,0,0.6557304630412768,150.9881802228809,375.5414645451045) " class="svg-element" id="svg-name">
    <g stroke="null" id="svg_1" fill="#548dd4">
     <path stroke="null" id="svg_2" d="m-121.719576,-538.672345l10.84,0l0,-3.8l-31.06,0l0,3.8l10.65,0l0,33.21l9.57,0l0,-33.21zm27.24,9.87l9.38,0l0,-3.81l-18.95,0l0,27.15l9.57,0l0,-23.34zm16.8,23.34l25.39,0l0,-21.68l0,0q0.05,-3.13 -1.15,-4.32l0,0l0,0q-1.19,-1.2 -4.32,-1.15l0,0l-16.5,0l0,3.81l10.45,0l0,0q2.15,-0.2 1.95,1.95l0,0l0,4.1l-15.82,0l0,17.29m9.47,-3.81l0,-9.67l6.35,0l0,9.67l-6.35,0zm23.25,3.81l25.48,0l0,-3.81l-16.21,0l0,-19.53l16.21,0l0,-3.81l-25.48,0l0,27.15zm33.79,0l26.36,0l0,-3.81l-16.79,0l0,-7.13l16.79,0l0,-10.74l0,0q0.05,-3.13 -1.14,-4.32l0,0l0,0q-1.2,-1.2 -4.33,-1.15l0,0l-20.89,0l0,27.15m16.89,-14.75l-7.32,0l0,-8.59l5.37,0l0,0q2.15,-0.2 1.95,1.95l0,0l0,6.64zm27.34,-8.59l9.38,0l0,-3.81l-18.95,0l0,27.15l9.57,0l0,-23.34z"/>
    </g>
   </g>
   <g stroke="null" transform="matrix(0.7238315874009332,0,0,0.38903094622652956,236.77578310460555,231.68947502184648) " class="svg-element" id="svg-atext"/>
  </g>
  <g id="svg-ghost"/>
 </g>
</svg>
